<?xml version="1.0" encoding="iso-8859-1"?>
<!-- Generator: Adobe Illustrator 19.0.0, SVG Export Plug-In . SVG Version: 6.00 Build 0)  -->
<svg version="1.1" id="Layer_1" xmlns="http://www.w3.org/2000/svg" xmlns:xlink="http://www.w3.org/1999/xlink" x="0px" y="0px"
	 viewBox="0 0 293.5 293.5" style="enable-background:new 0 0 293.5 293.5;" xml:space="preserve">
<g>
	<g>
		<g>
			<path d="M171.603,0h-49.705c-8.612,0-15.618,7.006-15.618,15.618v49.705c0,8.612,7.006,15.618,15.618,15.618h49.705
				c8.612,0,15.618-7.006,15.618-15.618V15.618C187.221,7.006,180.215,0,171.603,0z"/>
			<path d="M171.603,106.279h-49.705c-8.612,0-15.618,7.006-15.618,15.618v49.705c0,8.612,7.006,15.618,15.618,15.618h49.705
				c8.612,0,15.618-7.006,15.618-15.618v-49.705C187.221,113.285,180.215,106.279,171.603,106.279z"/>
			<path d="M171.603,212.559h-49.705c-8.612,0-15.618,7.006-15.618,15.618v49.705c0,8.612,7.006,15.618,15.618,15.618h49.705
				c8.612,0,15.618-7.006,15.618-15.618v-49.705C187.221,219.564,180.215,212.559,171.603,212.559z"/>
		</g>
	</g>
</g>
<g>
</g>
<g>
</g>
<g>
</g>
<g>
</g>
<g>
</g>
<g>
</g>
<g>
</g>
<g>
</g>
<g>
</g>
<g>
</g>
<g>
</g>
<g>
</g>
<g>
</g>
<g>
</g>
<g>
</g>
</svg>
